<svg xmlns="http://www.w3.org/2000/svg" version="1.1" xmlns:xlink="http://www.w3.org/1999/xlink" xmlns:svgjs="http://svgjs.dev/svgjs" width="2000" height="227" viewBox="0 0 2000 227"><g transform="matrix(1,0,0,1,-1.2121210968782634,0.9164707336913835)"><svg viewBox="0 0 396 45" data-background-color="#ffffff" preserveAspectRatio="xMidYMid meet" height="227" width="2000" xmlns="http://www.w3.org/2000/svg" xmlns:xlink="http://www.w3.org/1999/xlink"><defs></defs><g id="tight-bounds" transform="matrix(1,0,0,1,0.2400000228180943,-0.1816792203352975)"><svg viewBox="0 0 395.52 45.363358440670616" height="45.363358440670616" width="395.52"><g><svg viewBox="0 0 395.52 45.363358440670616" height="45.363358440670616" width="395.52"><g><svg viewBox="0 0 456.8709298198323 52.3998780100615" height="45.363358440670616" width="395.52"><g transform="matrix(1,0,0,1,0,7.2419513024035815)"><svg viewBox="0 0 395.52 37.915975405254336" height="37.915975405254336" width="395.52"><g><svg viewBox="0 0 395.52 37.915975405254336" height="37.915975405254336" width="395.52"><g><svg viewBox="0 0 395.52 37.915975405254336" height="37.915975405254336" width="395.52"><g transform="matrix(1,0,0,1,0,0)"><svg width="395.52" viewBox="0.9500000476837158 -34.29999923706055 357.7699890136719 34.29999923706055" height="37.915975405254336" data-palette-color="#8abcd7"><path d="M10.3 0L10.3-30.3 0.95-30.3 0.95-34.3 24.05-34.3 24.05-30.3 14.7-30.3 14.7 0 10.3 0ZM28.55 0L28.55-34.3 42.35-34.3Q47.3-34.3 49.95-31.73 52.6-29.15 52.6-24.8L52.6-24.8Q52.6-21.6 51-19.25 49.4-16.9 46.5-15.95L46.5-15.95 53.4 0 48.5 0 42.15-15.15 32.95-15.15 32.95 0 28.55 0ZM32.95-19.15L42.2-19.15Q44.8-19.15 46.4-20.7 48-22.25 48-24.8L48-24.8Q48-27.4 46.5-28.85 45-30.3 42.2-30.3L42.2-30.3 32.95-30.3 32.95-19.15ZM54.6 0L65.5-34.3 71.15-34.3 82.05 0 77.3 0 74.95-7.65 61.35-7.65 59 0 54.6 0ZM62.55-11.65L73.7-11.65 69.05-26.9Q68.7-28 68.25-30.7L68.25-30.7 68.05-30.7Q67.59-27.95 67.25-26.9L67.25-26.9 62.55-11.65ZM85.49 0L85.49-34.3 97.74-34.3Q102.69-34.3 105.34-31.6 107.99-28.9 107.99-24.3L107.99-24.3Q107.99-19.7 105.22-16.93 102.44-14.15 97.74-14.15L97.74-14.15 89.89-14.15 89.89 0 85.49 0ZM89.89-18.15L97.59-18.15Q100.19-18.15 101.79-19.83 103.39-21.5 103.39-24.3L103.39-24.3Q103.39-27.1 101.89-28.7 100.39-30.3 97.59-30.3L97.59-30.3 89.89-30.3 89.89-18.15ZM112.84 0L112.84-34.3 125.09-34.3Q130.04-34.3 132.69-31.6 135.34-28.9 135.34-24.3L135.34-24.3Q135.34-19.7 132.56-16.93 129.79-14.15 125.09-14.15L125.09-14.15 117.24-14.15 117.24 0 112.84 0ZM117.24-18.15L124.94-18.15Q127.54-18.15 129.14-19.83 130.74-21.5 130.74-24.3L130.74-24.3Q130.74-27.1 129.24-28.7 127.74-30.3 124.94-30.3L124.94-30.3 117.24-30.3 117.24-18.15ZM140.19 0L140.19-34.3 161.34-34.3 161.34-30.3 144.59-30.3 144.59-19.55 159.14-19.55 159.14-15.55 144.59-15.55 144.59-4 161.64-4 161.64 0 140.19 0ZM167.53 0L167.53-34.3 181.34-34.3Q186.28-34.3 188.94-31.73 191.59-29.15 191.59-24.8L191.59-24.8Q191.59-21.6 189.99-19.25 188.38-16.9 185.49-15.95L185.49-15.95 192.38 0 187.49 0 181.13-15.15 171.94-15.15 171.94 0 167.53 0ZM171.94-19.15L181.19-19.15Q183.78-19.15 185.38-20.7 186.99-22.25 186.99-24.8L186.99-24.8Q186.99-27.4 185.49-28.85 183.99-30.3 181.19-30.3L181.19-30.3 171.94-30.3 171.94-19.15ZM197.13 0L197.13-34.3 201.53-34.3 201.53-16.15 215.13-34.3 220.03-34.3 209.73-20.45 220.38 0 215.38 0 207.03-16.75 201.53-10.65 201.53 0 197.13 0ZM224.48 0L224.48-34.3 245.63-34.3 245.63-30.3 228.88-30.3 228.88-19.55 243.43-19.55 243.43-15.55 228.88-15.55 228.88-4 245.93-4 245.93 0 224.48 0ZM251.83 0L251.83-34.3 272.98-34.3 272.98-30.3 256.23-30.3 256.23-19.55 270.78-19.55 270.78-15.55 256.23-15.55 256.23-4 273.28-4 273.28 0 251.83 0ZM279.18 0L279.18-34.3 291.43-34.3Q296.38-34.3 299.03-31.6 301.68-28.9 301.68-24.3L301.68-24.3Q301.68-19.7 298.9-16.93 296.13-14.15 291.43-14.15L291.43-14.15 283.57-14.15 283.57 0 279.18 0ZM283.57-18.15L291.28-18.15Q293.88-18.15 295.48-19.83 297.07-21.5 297.07-24.3L297.07-24.3Q297.07-27.1 295.57-28.7 294.07-30.3 291.28-30.3L291.28-30.3 283.57-30.3 283.57-18.15ZM306.52 0L306.52-34.3 327.67-34.3 327.67-30.3 310.92-30.3 310.92-19.55 325.47-19.55 325.47-15.55 310.92-15.55 310.92-4 327.97-4 327.97 0 306.52 0ZM333.87 0L333.87-34.3 347.67-34.3Q352.62-34.3 355.27-31.73 357.92-29.15 357.92-24.8L357.92-24.8Q357.92-21.6 356.32-19.25 354.72-16.9 351.82-15.95L351.82-15.95 358.72 0 353.82 0 347.47-15.15 338.27-15.15 338.27 0 333.87 0ZM338.27-19.15L347.52-19.15Q350.12-19.15 351.72-20.7 353.32-22.25 353.32-24.8L353.32-24.8Q353.32-27.4 351.82-28.85 350.32-30.3 347.52-30.3L347.52-30.3 338.27-30.3 338.27-19.15Z" opacity="1" transform="matrix(1,0,0,1,0,0)" fill="#8abcd7" class="undefined-text-0" data-fill-palette-color="primary" id="text-0"></path></svg></g></svg></g></svg></g></svg></g><g transform="matrix(1,0,0,1,404.4710518097708,0)"><svg viewBox="0 0 52.3998780100615 52.3998780100615" height="52.3998780100615" width="52.3998780100615"><g data-palette-color="#8abcd7"><rect width="14.322633322750143" height="52.3998780100615" fill="#8abcd7" stroke="transparent" data-fill-palette-color="accent" x="0" fill-opacity="1"></rect><rect width="14.322633322750143" height="52.3998780100615" fill="#8abcd7" stroke="transparent" data-fill-palette-color="accent" x="17.46662600335383" fill-opacity="0.75"></rect><rect width="14.322633322750143" height="52.3998780100615" fill="#8abcd7" stroke="transparent" data-fill-palette-color="accent" x="34.93325200670766" fill-opacity="0.5"></rect></g></svg></g></svg></g></svg></g></svg><rect width="395.52" height="45.363358440670616" fill="none" stroke="none" visibility="hidden"></rect></g></svg></g></svg>